<svg width="108" height="64" viewBox="0 0 108 64" fill="none" xmlns="http://www.w3.org/2000/svg">
<path d="M56.0906 43.7751C54.2082 32.5125 43.3923 23.3557 31.9702 23.3557C19.5589 23.3557 8.64727 33.4059 7.5944 45.7852C7.17963 50.571 8.71108 55.1015 11.8697 58.5154C14.9964 61.9293 19.3994 63.8117 24.1852 63.8117H39.117C44.509 63.8117 49.231 61.7059 52.4534 57.9092C55.6759 54.1125 56.9521 49.0714 56.0906 43.7751Z" fill="white"/>
<path d="M28.0116 18.6965C33.1746 18.6965 37.3599 14.5112 37.3599 9.34827C37.3599 4.18538 33.1746 0 28.0116 0C22.8487 0 18.6634 4.18538 18.6634 9.34827C18.6634 14.5112 22.8487 18.6965 28.0116 18.6965Z" fill="white"/>
<path d="M49.2619 22.4245C53.5615 22.4245 57.0468 18.9391 57.0468 14.6396C57.0468 10.3401 53.5615 6.85468 49.2619 6.85468C44.9623 6.85468 41.477 10.3401 41.477 14.6396C41.477 18.9391 44.9623 22.4245 49.2619 22.4245Z" fill="white"/>
<path d="M60.7784 34.8767C64.2146 34.8767 67 32.0911 67 28.6549C67 25.2189 64.2146 22.4335 60.7784 22.4335C57.3425 22.4335 54.5569 25.2189 54.5569 28.6549C54.5569 32.0911 57.3425 34.8767 60.7784 34.8767Z" fill="white"/>
<path d="M7.78491 28.6561C12.0844 28.6561 15.5698 25.1706 15.5698 20.8711C15.5698 16.5716 12.0844 13.0862 7.78491 13.0862C3.48544 13.0862 0 16.5716 0 20.8711C0 25.1706 3.48544 28.6561 7.78491 28.6561Z" fill="white"/>
<path d="M64.7031 54.1875C66.5677 54.1875 67.8438 53.4844 68.5312 52.0781C69.2292 50.6615 69.5781 49.0885 69.5781 47.3594C69.5781 45.7969 69.3281 44.526 68.8281 43.5469C68.0365 42.0052 66.6719 41.2344 64.7344 41.2344C63.0156 41.2344 61.7656 41.8906 60.9844 43.2031C60.2031 44.5156 59.8125 46.099 59.8125 47.9531C59.8125 49.7344 60.2031 51.2188 60.9844 52.4062C61.7656 53.5938 63.0052 54.1875 64.7031 54.1875ZM64.8125 38.7812C66.9688 38.7812 68.7917 39.5 70.2812 40.9375C71.7708 42.375 72.5156 44.4896 72.5156 47.2812C72.5156 49.9792 71.8594 52.2083 70.5469 53.9688C69.2344 55.7292 67.1979 56.6094 64.4375 56.6094C62.1354 56.6094 60.3073 55.8333 58.9531 54.2812C57.599 52.7188 56.9219 50.625 56.9219 48C56.9219 45.1875 57.6354 42.9479 59.0625 41.2812C60.4896 39.6146 62.4062 38.7812 64.8125 38.7812ZM81.7812 38.9688C83.0938 38.9688 84.2396 39.2917 85.2188 39.9375C85.75 40.3021 86.2917 40.8333 86.8438 41.5312V39.4219H89.4375V54.6406C89.4375 56.7656 89.125 58.4427 88.5 59.6719C87.3333 61.9427 85.1302 63.0781 81.8906 63.0781C80.0885 63.0781 78.5729 62.6719 77.3438 61.8594C76.1146 61.0573 75.4271 59.7969 75.2812 58.0781H78.1406C78.276 58.8281 78.5469 59.4062 78.9531 59.8125C79.5885 60.4375 80.5885 60.75 81.9531 60.75C84.1094 60.75 85.5208 59.9896 86.1875 58.4688C86.5833 57.5729 86.7656 55.974 86.7344 53.6719C86.1719 54.526 85.4948 55.1615 84.7031 55.5781C83.9115 55.9948 82.8646 56.2031 81.5625 56.2031C79.75 56.2031 78.1615 55.5625 76.7969 54.2812C75.4427 52.9896 74.7656 50.8594 74.7656 47.8906C74.7656 45.0885 75.4479 42.901 76.8125 41.3281C78.1875 39.7552 79.8438 38.9688 81.7812 38.9688ZM86.8438 47.5625C86.8438 45.4896 86.4167 43.9531 85.5625 42.9531C84.7083 41.9531 83.6198 41.4531 82.2969 41.4531C80.3177 41.4531 78.9635 42.3802 78.2344 44.2344C77.849 45.224 77.6562 46.5208 77.6562 48.125C77.6562 50.0104 78.0365 51.4479 78.7969 52.4375C79.5677 53.4167 80.599 53.9062 81.8906 53.9062C83.9115 53.9062 85.3333 52.9948 86.1562 51.1719C86.6146 50.1406 86.8438 48.9375 86.8438 47.5625ZM92.0938 39.2656H95.7344L99.5781 45.1562L103.469 39.2656L106.891 39.3438L101.25 47.4219L107.141 56H103.547L99.3906 49.7188L95.3594 56H91.7969L97.6875 47.4219L92.0938 39.2656Z" fill="white"/>
<path d="M43.25 53.3438C44.3021 53.3438 45.1667 53.2344 45.8438 53.0156C47.0521 52.6094 48.0417 51.8281 48.8125 50.6719C49.4271 49.7448 49.8698 48.5573 50.1406 47.1094C50.2969 46.2448 50.375 45.4427 50.375 44.7031C50.375 41.8594 49.8073 39.651 48.6719 38.0781C47.5469 36.5052 45.7292 35.7188 43.2188 35.7188H37.7031V53.3438H43.25ZM34.5781 33.0469H43.875C47.0312 33.0469 49.4792 34.1667 51.2188 36.4062C52.7708 38.4271 53.5469 41.0156 53.5469 44.1719C53.5469 46.6094 53.0885 48.8125 52.1719 50.7812C50.5573 54.2604 47.7812 56 43.8438 56H34.5781V33.0469Z" fill="#5343FF"/>
</svg>
